<svg width="94" height="40" viewBox="0 0 94 40" fill="none" xmlns="http://www.w3.org/2000/svg">
<g clip-path="url(#clip0_5253_40619)">
<path d="M20.9236 10H22.9109V10.3717H22.5366C22.4711 10.3717 22.357 10.4467 22.1925 10.595C22.028 10.7433 21.9458 10.86 21.9458 10.9367V16.6033C21.9458 16.6817 22.028 16.795 22.1925 16.945C22.357 17.095 22.4711 17.17 22.5366 17.17H22.9109V17.54H19.9786V17.1667H20.3529C20.4184 17.1667 20.5308 17.0917 20.6886 16.9417C20.8464 16.7917 20.9253 16.6783 20.9253 16.6V11.1133L18.1693 17.675L15.4166 11V16.6017C15.4166 16.68 15.4955 16.7933 15.6516 16.9433C15.8077 17.0933 15.9218 17.1683 15.9873 17.1683H16.3599V17.5383H14V17.1667H14.3743C14.4532 17.1667 14.5707 17.0917 14.7284 16.9417C14.8862 16.7917 14.9634 16.6783 14.9634 16.6V10.9367C14.9634 10.86 14.8845 10.745 14.7284 10.595C14.5724 10.445 14.4532 10.3717 14.3743 10.3717H14V10H16.2021L18.4848 15.645H18.5436L20.9236 10ZM25.6451 16.7767C25.98 16.7965 26.3138 16.7226 26.6085 16.5633C26.853 16.3971 27.0548 16.1762 27.1977 15.9183H27.5132C27.373 16.4025 27.1046 16.8405 26.7361 17.1867C26.3318 17.5196 25.8152 17.6876 25.2909 17.6567C24.9792 17.6679 24.6691 17.6065 24.3855 17.4774C24.102 17.3484 23.8527 17.1552 23.6578 16.9133C23.2489 16.4116 23.0329 15.7819 23.0485 15.1367C23.0303 14.7913 23.0816 14.4459 23.1995 14.1205C23.3174 13.7951 23.4994 13.4963 23.735 13.2417C23.9457 13.0166 24.2015 12.8378 24.486 12.7167C24.7704 12.5956 25.0772 12.5348 25.3866 12.5383C25.7231 12.5307 26.0577 12.5908 26.3702 12.715C26.6538 12.835 26.9136 13.0043 27.1372 13.215L26.4205 14.3333L26.1251 14.3517C26.1922 14.0188 26.172 13.6745 26.0664 13.3517C26.0037 13.2014 25.892 13.0764 25.7493 12.9967C25.6066 12.9169 25.4411 12.887 25.2792 12.9117C25.0682 12.8984 24.8573 12.9399 24.6675 13.0323C24.4776 13.1247 24.3153 13.2646 24.1966 13.4383C23.9432 13.8563 23.82 14.3393 23.8424 14.8267C23.8282 15.3316 23.9995 15.8245 24.3241 16.2133C24.4873 16.4 24.6909 16.5477 24.9196 16.6452C25.1484 16.7428 25.3964 16.7877 25.6451 16.7767ZM30.5227 17.5383H27.5518V17.1667H27.9311C28.01 17.1667 28.1275 17.0917 28.2853 16.9417C28.4431 16.7917 28.5203 16.6783 28.5203 16.6V10.9367C28.5203 10.86 28.4431 10.745 28.2853 10.595C28.1275 10.445 28.005 10.3717 27.9311 10.3717H27.5518V10H30.5227V10.3717H30.1484C30.0695 10.3717 29.952 10.4467 29.7942 10.595C29.6364 10.7433 29.5592 10.86 29.5592 10.9367V14.0233L32.2733 11.015C32.3253 10.95 32.2733 10.8267 32.1357 10.645C31.998 10.4633 31.8856 10.3717 31.8201 10.3717H31.4559V10H34.2085V10.3717H33.8342C33.6494 10.4348 33.4796 10.5352 33.3357 10.6667C33.0722 10.8683 32.9161 11 32.8624 11.0483L31.0161 13.02L33.6714 16.52C33.8003 16.6691 33.9487 16.8003 34.1129 16.91C34.2447 17.0304 34.4035 17.1178 34.5761 17.165H35.1266C35.257 17.1382 35.3749 17.0697 35.4623 16.97C35.6067 16.8383 35.6789 16.7283 35.6789 16.6367V13.555C35.6789 13.4767 35.6067 13.3717 35.4623 13.2417C35.3749 13.142 35.257 13.0735 35.1266 13.0467H34.8296V12.675H36.5802V16.64C36.5802 16.7317 36.6557 16.8417 36.8068 16.9733C36.8937 17.0679 37.0061 17.1356 37.1307 17.1683H37.7417C37.8071 17.1683 37.9095 17.1033 38.0555 16.9733C38.2016 16.8433 38.2721 16.7317 38.2721 16.64V13.555C38.2721 13.4767 38.1999 13.3717 38.0555 13.2417C37.9112 13.1117 37.8071 13.0467 37.7417 13.0467H37.4261V12.675H38.9804L39.1767 13.6667C39.4436 13.3868 39.7296 13.1257 40.0328 12.885C40.3406 12.6552 40.7187 12.5375 41.1036 12.5517C41.2843 12.5484 41.4639 12.5814 41.6314 12.6487C41.799 12.716 41.9512 12.8162 42.0788 12.9433C42.2131 13.0756 42.3183 13.2341 42.3876 13.4088C42.457 13.5835 42.489 13.7707 42.4816 13.9583V16.64C42.4816 16.7317 42.5538 16.8417 42.6981 16.9733C42.8425 17.105 42.9465 17.1683 43.012 17.1683H43.3276V17.5383H40.7511V17.1667H41.023C41.1533 17.1395 41.2711 17.0711 41.3587 16.9717C41.5031 16.84 41.5753 16.73 41.5753 16.6383V14.0233C41.5848 13.8046 41.5145 13.5897 41.3772 13.4183C41.3035 13.3372 41.2122 13.2738 41.11 13.2331C41.0079 13.1923 40.8978 13.1753 40.7881 13.1833C40.399 13.1951 40.0236 13.3287 39.7155 13.565C39.3563 13.8183 39.1767 14.03 39.1767 14.2V16.64C39.1767 16.7317 39.2489 16.8417 39.3933 16.9733C39.4807 17.073 39.5986 17.1415 39.729 17.1683H40.0042V17.5383H32.9665L30.3263 13.77L29.5592 14.59V16.6017C29.5592 16.68 29.6364 16.7933 29.7942 16.9433C29.952 17.0933 30.0695 17.1683 30.1484 17.1683H30.5227V17.5383ZM33.1578 26.0383L33.1343 26.015C33.3844 26.2233 33.6379 26.4317 33.893 26.64C34.1481 26.8483 34.42 27.05 34.7087 27.2467H35.1602V27.6367H34.3344C33.9982 27.6423 33.6641 27.5829 33.3508 27.4617C33.0162 27.3129 32.7101 27.1077 32.4462 26.855C32.1485 27.1527 31.7895 27.383 31.3938 27.53C30.936 27.6881 30.4534 27.7637 29.9688 27.7533C29.3528 27.7565 28.7565 27.5381 28.2903 27.1383C28.049 26.945 27.856 26.699 27.7261 26.4195C27.5963 26.1399 27.5332 25.8344 27.5417 25.5267C27.5368 25.0689 27.6525 24.6179 27.8774 24.2183C28.0956 23.8345 28.4015 23.5068 28.7704 23.2617C28.5939 23.0392 28.4451 22.7963 28.3272 22.5383C28.211 22.2672 28.1538 21.9747 28.1594 21.68C28.1454 21.4504 28.1819 21.2204 28.2666 21.0063C28.3512 20.7921 28.4819 20.5989 28.6495 20.44C29.0243 20.1301 29.5036 19.9728 29.9906 20C30.2712 19.9906 30.5512 20.0301 30.8181 20.1167C30.9931 20.1881 31.1795 20.2282 31.3686 20.235C31.4413 20.2368 31.514 20.2301 31.5851 20.215C31.6447 20.1956 31.6941 20.1537 31.7228 20.0983H32.0584V21.875H31.7228C31.6706 21.5081 31.4928 21.1703 31.2192 20.9183C31.0667 20.7375 30.8755 20.5927 30.6594 20.4947C30.4433 20.3967 30.208 20.3478 29.9704 20.3517C29.6255 20.3328 29.2845 20.4329 29.0053 20.635C28.8882 20.73 28.7951 20.851 28.7336 20.9882C28.6721 21.1254 28.6439 21.275 28.6512 21.425C28.6492 21.7188 28.7541 22.0035 28.9466 22.2267C29.1584 22.4718 29.4292 22.6599 29.7338 22.7733C30.2183 23.2956 30.7425 23.8194 31.3065 24.345C31.8705 24.8706 32.4081 25.3622 32.9195 25.82C33.0595 25.5972 33.1626 25.3535 33.225 25.0983C33.2865 24.8248 33.3163 24.5452 33.3139 24.265C33.3207 24.1145 33.2952 23.9643 33.2391 23.8244C33.183 23.6844 33.0975 23.5579 32.9883 23.4533C32.7479 23.2428 32.4339 23.1344 32.1138 23.1517V22.7733H34.8128V23.125H34.519C34.4536 23.125 34.3243 23.235 34.1347 23.4583C33.9933 23.5897 33.8941 23.7596 33.8493 23.9467V23.9667C33.8363 24.3418 33.7702 24.7132 33.653 25.07C33.5402 25.4156 33.3731 25.7413 33.1578 26.035V26.0383ZM30.5814 27.1717C30.8918 27.1758 31.2008 27.1297 31.4962 27.035C31.7582 26.9477 32.0063 26.8237 32.233 26.6667L32.1743 26.6283C31.6148 26.1328 31.0642 25.625 30.5227 25.105C29.9811 24.585 29.4563 24.0378 28.9483 23.4633C28.7607 23.6585 28.608 23.8839 28.4968 24.13C28.3797 24.4281 28.326 24.747 28.339 25.0667C28.3466 25.3462 28.4147 25.6208 28.5386 25.8718C28.6626 26.1229 28.8395 26.3445 29.0574 26.5217C29.463 26.9233 30.0088 27.1542 30.5814 27.1667V27.1717ZM36.0297 11.485H36.0095C35.8446 11.4865 35.6859 11.4229 35.5681 11.3083C35.5076 11.2542 35.4595 11.1878 35.4271 11.1136C35.3946 11.0394 35.3786 10.9592 35.3801 10.8783V10.86C35.3753 10.7743 35.3897 10.6886 35.4222 10.6091C35.4547 10.5296 35.5045 10.4582 35.5681 10.4C35.6979 10.2932 35.8611 10.2348 36.0297 10.2348C36.1982 10.2348 36.3614 10.2932 36.4912 10.4C36.5548 10.4582 36.6046 10.5296 36.6371 10.6091C36.6696 10.6886 36.684 10.7743 36.6792 10.86H36.6591C36.6725 10.86 36.6792 10.86 36.6792 10.8783C36.6807 10.9592 36.6647 11.0394 36.6322 11.1136C36.5998 11.1878 36.5517 11.2542 36.4912 11.3083C36.3793 11.4205 36.2272 11.484 36.0683 11.485H36.0297ZM41.023 27.1283C41.5627 27.1592 42.0988 27.023 42.5571 26.7383C42.954 26.4417 43.2711 26.0524 43.4803 25.605H43.8764C43.6592 26.2394 43.2544 26.7941 42.7149 27.1967C42.1601 27.5911 41.4902 27.7936 40.8082 27.7733C40.3112 27.791 39.8167 27.695 39.363 27.4927C38.9092 27.2904 38.5084 26.9873 38.1915 26.6067C37.5343 25.8282 37.1847 24.8389 37.2079 23.8233C37.1814 22.8351 37.5012 21.8685 38.1126 21.0883C38.4093 20.7173 38.7903 20.4213 39.2245 20.2245C39.6586 20.0278 40.1334 19.936 40.6101 19.9567C40.9655 19.9486 41.3193 20.0051 41.6541 20.1233C41.9358 20.2337 42.2359 20.2902 42.5387 20.29C42.6331 20.2946 42.7273 20.2775 42.8139 20.24C42.887 20.2028 42.9534 20.1538 43.0103 20.095H43.2856V22.7533H42.9499C42.8931 22.2169 42.6816 21.7082 42.3406 21.2883C42.1585 21.0098 41.9072 20.7826 41.6108 20.6287C41.3144 20.4748 40.983 20.3995 40.6487 20.41C40.3637 20.395 40.0786 20.4384 39.8111 20.5376C39.5437 20.6368 39.2998 20.7897 39.0945 20.9867C38.6608 21.5051 38.4233 22.1577 38.4231 22.8317V22.7933C38.4097 22.9367 38.3996 23.08 38.3929 23.2233C38.3929 23.3667 38.3828 23.515 38.3828 23.6717C38.3828 23.8533 38.3828 24.04 38.403 24.2283C38.4231 24.4167 38.4298 24.59 38.4416 24.7467C38.4939 25.3803 38.7649 25.9767 39.2086 26.435C39.4451 26.6706 39.7289 26.8541 40.0415 26.9736C40.3541 27.093 40.6885 27.1458 41.023 27.1283ZM47.2333 16.1717C47.245 16.3751 47.2113 16.5785 47.1347 16.7675C47.0581 16.9565 46.9405 17.1263 46.7902 17.265C46.4767 17.5331 46.0724 17.6731 45.6589 17.6567C45.3889 17.6648 45.1204 17.6147 44.8717 17.51C44.6756 17.4151 44.4605 17.365 44.2423 17.3633C44.1673 17.3561 44.092 17.3731 44.0275 17.4117L43.8697 17.5383H43.6414V15.82H43.9368C43.9917 16.1549 44.1535 16.4634 44.3984 16.7C44.554 16.881 44.7493 17.0244 44.9692 17.1191C45.1891 17.2139 45.4279 17.2575 45.6673 17.2467C45.9134 17.2594 46.1583 17.2052 46.3756 17.09C46.4594 17.037 46.5273 16.9627 46.5721 16.8747C46.617 16.7867 46.6373 16.6884 46.6307 16.59C46.6397 16.4727 46.6161 16.3552 46.5626 16.2503C46.509 16.1454 46.4275 16.0571 46.3269 15.995C46.128 15.8735 45.9211 15.7655 45.7076 15.6717C45.523 15.595 45.3568 15.5233 45.2041 15.4583C45.0513 15.3933 44.8784 15.3217 44.6821 15.2433C44.4041 15.1158 44.1512 14.9403 43.9351 14.725C43.8343 14.6161 43.7563 14.4885 43.7056 14.3494C43.6549 14.2104 43.6325 14.0627 43.6397 13.915C43.6275 13.7298 43.6564 13.5441 43.7246 13.3713C43.7928 13.1985 43.8985 13.0427 44.0342 12.915C44.2865 12.7374 44.5794 12.6247 44.8864 12.5872C45.1934 12.5497 45.505 12.5884 45.7932 12.7C45.9617 12.7832 46.1471 12.8271 46.3353 12.8283C46.3928 12.8302 46.45 12.82 46.5032 12.7983C46.5518 12.7769 46.5907 12.7383 46.6123 12.69H46.8674V14.19H46.572C46.5243 13.8937 46.3832 13.6201 46.1692 13.4083C46.0377 13.2487 45.8708 13.1215 45.6815 13.0368C45.4922 12.9521 45.2857 12.9121 45.0782 12.92C44.8506 12.9015 44.6239 12.9642 44.4387 13.0967C44.3723 13.151 44.3192 13.2195 44.2835 13.2972C44.2477 13.3749 44.2302 13.4596 44.2322 13.545C44.2262 13.6348 44.2428 13.7247 44.2806 13.8065C44.3184 13.8883 44.3762 13.9594 44.4488 14.0133C44.6348 14.1416 44.8319 14.2532 45.0379 14.3467C45.2225 14.4233 45.3954 14.495 45.5599 14.56L46.1004 14.775C46.3824 14.8927 46.6419 15.0579 46.8674 15.2633C46.9918 15.3781 47.0897 15.5183 47.1543 15.6742C47.219 15.8302 47.2488 15.9982 47.2417 16.1667L47.2333 16.1717ZM48.5207 23.32C48.7709 23.5625 48.9661 23.8551 49.0935 24.1785C49.2208 24.5018 49.2773 24.8483 49.2592 25.195C49.277 25.5432 49.2204 25.8911 49.0932 26.216C48.9659 26.5409 48.7708 26.8353 48.5207 27.08C48.0688 27.5257 47.4573 27.775 46.8204 27.7733C46.1765 27.778 45.5571 27.5287 45.0983 27.08C44.8485 26.8352 44.6537 26.5407 44.5267 26.2158C44.3997 25.8909 44.3434 25.543 44.3615 25.195C44.3426 24.864 44.3924 24.5326 44.5078 24.2215C44.6231 23.9104 44.8016 23.6261 45.0321 23.3862C45.2627 23.1464 45.5403 22.9561 45.8479 22.8272C46.1555 22.6982 46.4865 22.6334 46.8204 22.6367C47.4584 22.6321 48.0724 22.8777 48.5291 23.32H48.5207ZM48.284 26V26.0383C48.2974 25.895 48.3058 25.7517 48.3125 25.6083C48.3193 25.465 48.3226 25.3217 48.3226 25.1783C48.3226 25.035 48.3226 24.8967 48.3125 24.76C48.3025 24.6233 48.2974 24.495 48.284 24.3783C48.2534 24.0218 48.1047 23.6854 47.861 23.4217C47.7222 23.2963 47.559 23.2004 47.3815 23.1399C47.204 23.0794 47.0159 23.0556 46.8288 23.07C46.6456 23.0571 46.4618 23.0817 46.2886 23.1422C46.1153 23.2027 45.9565 23.2978 45.8217 23.4217C45.5808 23.6791 45.4321 24.0084 45.3988 24.3583V24.3333C45.3727 24.4687 45.3564 24.6057 45.3501 24.7433C45.3501 24.8867 45.34 25.03 45.34 25.1717C45.34 25.3133 45.34 25.455 45.3501 25.5917C45.3559 25.72 45.3722 25.8476 45.3988 25.9733C45.4377 26.3218 45.5856 26.6494 45.8217 26.91C45.9535 27.0392 46.1114 27.1392 46.285 27.2033C46.4587 27.2674 46.644 27.2941 46.8288 27.2817C47.0184 27.2982 47.2094 27.2745 47.3891 27.2121C47.5688 27.1498 47.7331 27.0502 47.8711 26.92C48.101 26.663 48.2452 26.3416 48.284 26ZM49.897 17.6667C49.5867 17.6725 49.2791 17.6078 48.9978 17.4776C48.7165 17.3473 48.4689 17.1549 48.2739 16.915C47.8487 16.4161 47.6213 15.7802 47.6345 15.1267C47.6141 14.4567 47.8457 13.8031 48.284 13.2933C48.4786 13.0575 48.7254 12.8695 49.0052 12.7441C49.285 12.6186 49.5902 12.559 49.897 12.57C50.1351 12.5568 50.3734 12.5946 50.5955 12.6809C50.8176 12.7672 51.0184 12.8999 51.1844 13.07C51.4925 13.3973 51.6713 13.824 51.6879 14.2717L51.7081 14.6233L48.4418 14.8833C48.4484 15.3515 48.614 15.8037 48.9118 16.1667C49.0614 16.3662 49.2577 16.5265 49.4838 16.6336C49.7099 16.7408 49.9589 16.7916 50.2092 16.7817C50.5473 16.8005 50.884 16.7267 51.1827 16.5683C51.4259 16.4109 51.6256 16.1954 51.7634 15.9417H52.0588C51.9338 16.4233 51.6743 16.8601 51.3103 17.2017C50.914 17.5253 50.4091 17.6878 49.897 17.6567V17.6667ZM49.8769 12.94C49.6623 12.9222 49.4469 12.9606 49.2519 13.0512C49.057 13.1419 48.8893 13.2817 48.7657 13.4567C48.5442 13.7772 48.418 14.1532 48.4015 14.5417L50.8604 14.3333C50.9025 14.0065 50.8651 13.6745 50.7513 13.365C50.6439 13.0761 50.3524 12.9311 49.8769 12.93V12.94ZM55.8169 27.2733C55.8958 27.2733 56.0032 27.205 56.1408 27.0683C56.2785 26.9317 56.3473 26.825 56.3473 26.7467V24.08C56.3561 23.8719 56.2901 23.6675 56.161 23.5033C56.0848 23.4232 55.9913 23.3612 55.8875 23.3223C55.7837 23.2833 55.6723 23.2683 55.5618 23.2783C55.2135 23.2898 54.8784 23.4132 54.6067 23.63C54.2856 23.8656 54.125 24.0611 54.125 24.2167V26.755C54.125 26.8333 54.1938 26.94 54.3315 27.0767C54.4691 27.2133 54.5715 27.2817 54.6369 27.2817H54.9324V27.6533H52.4147V27.2817H52.6899C52.7688 27.2817 52.8763 27.2133 53.0139 27.0767C53.1515 26.94 53.2203 26.8333 53.2203 26.755V24.0883C53.2311 23.8722 53.1612 23.6597 53.024 23.4917C52.9484 23.413 52.8562 23.3521 52.754 23.3132C52.6519 23.2742 52.5423 23.2584 52.4331 23.2667C52.0758 23.2783 51.7328 23.4092 51.4596 23.6383C51.1385 23.885 50.9779 24.0933 50.9779 24.2633V26.7633C50.9779 26.8417 51.0467 26.9483 51.1844 27.085C51.322 27.2217 51.4311 27.29 51.51 27.29H51.7853V27.6617H49.2676V27.29H49.563C49.6285 27.29 49.7308 27.2217 49.8668 27.085C50.0027 26.9483 50.0732 26.8417 50.0732 26.7633V23.6517C50.0732 23.575 50.0044 23.47 49.8668 23.34C49.7292 23.21 49.6285 23.145 49.563 23.145H49.2676V22.7733H50.7782L50.9746 23.7117C51.2633 23.4117 51.5257 23.1606 51.7618 22.9583C52.0495 22.7399 52.4074 22.6327 52.7688 22.6567C53.0779 22.6505 53.3808 22.7428 53.6332 22.92C53.7589 23.0101 53.8641 23.1253 53.9421 23.2582C54.0202 23.3911 54.0693 23.5388 54.0864 23.6917C54.3869 23.405 54.6638 23.1633 54.9122 22.9683C55.1967 22.7619 55.5438 22.6584 55.8958 22.675C56.2521 22.6663 56.5978 22.7961 56.8592 23.0367C56.9946 23.1701 57.0999 23.3307 57.1679 23.5078C57.2359 23.6848 57.2651 23.8742 57.2537 24.0633V26.73C57.2537 26.8083 57.3225 26.915 57.4601 27.0517C57.5977 27.1883 57.6984 27.2567 57.7639 27.2567H58.0593V27.6283H55.5416V27.2567L55.8169 27.2733ZM52.5322 13.6067C52.4501 13.4791 52.3468 13.3664 52.2267 13.2733C52.0588 13.13 51.9481 13.0583 51.891 13.0583H51.6745V12.675H54.3298V13.0467H54.0159C53.9505 13.0467 53.8649 13.1117 53.7608 13.2417C53.6728 13.3326 53.6174 13.4497 53.603 13.575L54.7779 15.9767L55.8605 13.5933C55.8611 13.5279 55.8483 13.4629 55.8229 13.4025C55.7975 13.3421 55.7601 13.2873 55.7128 13.2417C55.6009 13.1117 55.512 13.0467 55.446 13.0467H55.122V12.675H57.1093V13.0467H56.8928C56.8273 13.0467 56.7249 13.115 56.5873 13.2517C56.4793 13.3492 56.3895 13.4648 56.3221 13.5933L54.6437 17.1283L53.2002 19.8833L52.7722 19.6667L54.266 16.99L52.5322 13.6067ZM61.4431 22.65C61.7174 22.6393 61.9901 22.696 62.2369 22.8152C62.4838 22.9345 62.6972 23.1124 62.858 23.3333C63.2175 23.8622 63.3942 24.4927 63.3615 25.13C63.3879 25.8008 63.187 26.461 62.7909 27.005C62.6274 27.237 62.4095 27.426 62.1559 27.5555C61.9023 27.685 61.6208 27.7512 61.3356 27.7483C60.975 27.7664 60.6168 27.6814 60.3034 27.5033C60.0262 27.3171 59.7996 27.0658 59.6438 26.7717V29.115C59.6438 29.2067 59.7159 29.3167 59.8603 29.4483C60.0046 29.58 60.1104 29.6433 60.1758 29.6433H60.4931V30H57.9015V29.6283H58.2171C58.3442 29.6017 58.4585 29.533 58.541 29.4333C58.6505 29.3528 58.7245 29.2334 58.7475 29.1V23.6517C58.7475 23.575 58.6787 23.47 58.541 23.34C58.4585 23.2404 58.3442 23.1716 58.2171 23.145H57.9015V22.7533H59.4944L59.6522 23.77C59.8314 23.4272 60.091 23.1322 60.4091 22.91C60.7193 22.7202 61.0789 22.6251 61.4431 22.6367V22.65ZM62.4266 25.9317V25.95L62.4652 25.56C62.4786 25.4304 62.4854 25.3003 62.4854 25.17C62.4856 25.0558 62.4789 24.9417 62.4652 24.8283C62.4518 24.7167 62.4384 24.61 62.4266 24.505C62.3944 24.1631 62.2567 23.8395 62.0322 23.5783C61.9246 23.4663 61.7939 23.3785 61.6491 23.321C61.5043 23.2635 61.3487 23.2376 61.193 23.245C61.0115 23.2374 60.8304 23.2672 60.6611 23.3327C60.4918 23.3981 60.338 23.4976 60.2094 23.625C59.953 23.8928 59.7643 24.2173 59.6589 24.5717V25.8417C59.6568 26.0238 59.6924 26.2045 59.7635 26.3725C59.8345 26.5404 59.9394 26.6922 60.0718 26.8183C60.2024 26.9515 60.3592 27.0565 60.5325 27.1271C60.7057 27.1976 60.8917 27.2321 61.0788 27.2283H61.099C61.2734 27.2416 61.4486 27.216 61.6118 27.1534C61.775 27.0908 61.9221 26.9929 62.0423 26.8667C62.2623 26.5954 62.3961 26.2653 62.4266 25.9183V25.9317ZM73.5396 26.7517C73.5396 26.83 73.6118 26.9367 73.7562 27.0733C73.9005 27.21 74.0046 27.2783 74.07 27.2783H74.3654V27.65H71.789V27.2783H72.0744C72.1415 27.2783 72.2422 27.21 72.3899 27.0733C72.5376 26.9367 72.6064 26.83 72.6064 26.7517V24.1017C72.6133 23.8882 72.5477 23.6786 72.4201 23.5067C72.3502 23.4226 72.2609 23.3564 72.1599 23.3138C72.0588 23.2712 71.9489 23.2533 71.8394 23.2617C71.449 23.2743 71.0731 23.411 70.7668 23.6517C70.4054 23.9139 70.2253 24.1222 70.2264 24.2767V26.7383C70.2264 26.83 70.2986 26.94 70.4429 27.0717C70.5303 27.1713 70.6483 27.2398 70.7786 27.2667H71.0673V27.6383H66.8913L66.7537 26.6233C66.5468 26.8933 66.3165 27.1448 66.0655 27.375C65.8101 27.6134 65.471 27.7432 65.1205 27.7367C64.9554 27.7378 64.7917 27.7055 64.6396 27.6416C64.4875 27.5777 64.3502 27.4835 64.236 27.365C64.1111 27.2394 64.0134 27.0897 63.9491 26.9252C63.8847 26.7606 63.855 26.5847 63.8617 26.4083C63.8429 26.2012 63.8837 25.993 63.9794 25.8081C64.0751 25.6231 64.2217 25.4688 64.4022 25.3633C64.731 25.1743 65.0854 25.0329 65.4546 24.9433L66.7335 24.6883L66.7537 24.1033C66.7684 23.8085 66.6701 23.519 66.4784 23.2933C66.3508 23.1803 66.2008 23.095 66.0381 23.0428C65.8754 22.9906 65.7035 22.9726 65.5334 22.99C65.3684 22.9703 65.2011 22.9963 65.0501 23.0651C64.899 23.134 64.77 23.2429 64.6774 23.38C64.6038 23.5412 64.57 23.7176 64.5787 23.8944C64.5875 24.0712 64.6386 24.2434 64.7278 24.3967H64.3736L63.7023 23.42C63.9711 23.1574 64.2915 22.9525 64.6435 22.818C64.9954 22.6836 65.3715 22.6224 65.7483 22.6383C66.2299 22.622 66.7046 22.7554 67.1061 23.02C67.2851 23.142 67.4296 23.3074 67.526 23.5006C67.6223 23.6937 67.6673 23.9081 67.6567 24.1233V26.74C67.6567 26.8183 67.7289 26.9217 67.8732 27.0517C68.0175 27.1817 68.1216 27.2483 68.1871 27.2483H68.7779C68.9086 27.2214 69.0266 27.1522 69.1136 27.0517C69.2579 26.9217 69.3301 26.8183 69.3301 26.74V23.6517C69.3301 23.575 69.2579 23.47 69.1136 23.34C69.0261 23.2403 68.9082 23.1718 68.7779 23.145H68.4825V22.7533H70.0367L70.2331 23.77C70.4961 23.4922 70.7763 23.2311 71.0723 22.9883C71.3823 22.7552 71.7648 22.6372 72.1532 22.655C72.3336 22.6518 72.5127 22.6846 72.68 22.7516C72.8472 22.8186 72.9992 22.9184 73.1268 23.045C73.2617 23.1772 73.3673 23.3359 73.437 23.511C73.5066 23.686 73.5387 23.8736 73.5313 24.0617L73.5396 26.7517ZM66.7537 25.02L65.5788 25.3133C65.3265 25.3541 65.0966 25.4815 64.9292 25.6733C64.8075 25.8484 64.7452 26.0574 64.7513 26.27V26.2883C64.7498 26.3878 64.7681 26.4866 64.8053 26.579C64.8425 26.6714 64.8977 26.7556 64.9678 26.8267C65.0356 26.899 65.1181 26.9563 65.2098 26.9948C65.3015 27.0333 65.4003 27.0521 65.4999 27.05H65.5284C65.7919 27.0395 66.043 26.9361 66.2367 26.7583C66.4363 26.5998 66.6067 26.408 66.7402 26.1917L66.7537 25.02ZM79.2632 22.7733V23.145H79.0265C78.9745 23.145 78.8788 23.2133 78.7412 23.35C78.6369 23.4489 78.5414 23.5565 78.4558 23.6717L76.8042 27.2267L75.3289 29.9617L74.916 29.7467L76.3913 27.07L74.6609 23.6917C74.5783 23.5646 74.475 23.4519 74.3554 23.3583C74.1875 23.215 74.0835 23.1433 74.0314 23.1433H73.7948V22.7733H76.4501V23.145H76.1547C76.0892 23.145 76.0003 23.21 75.8895 23.34C75.7973 23.4291 75.7381 23.5466 75.7216 23.6733L76.8965 26.0767L77.9842 23.6667C77.9843 23.604 77.9712 23.5419 77.9458 23.4845C77.9204 23.4271 77.8831 23.3756 77.8365 23.3333C77.7257 23.2033 77.6367 23.1383 77.5713 23.1383H77.2574V22.7733H79.2632Z" fill="#051C2C"/>
</g>
<defs>
<clipPath id="clip0_5253_40619">
<rect width="65.2632" height="20" fill="white" transform="translate(14 10)"/>
</clipPath>
</defs>
</svg>
