<svg width="94" height="40" viewBox="0 0 94 40" fill="none" xmlns="http://www.w3.org/2000/svg">
<g clip-path="url(#clip0_5253_40592)">
<path d="M82.5703 18.7755V17.5076H80.9957V15.5364L80.9427 15.5527L79.4638 16.0052L79.4347 16.0141V17.5077H77.1004V16.6756C77.1004 16.2882 77.187 15.9917 77.3578 15.794C77.5273 15.5986 77.7698 15.4993 78.0791 15.4993C78.3015 15.4993 78.5317 15.5517 78.7634 15.655L78.8215 15.6809V14.3456L78.7941 14.3356C78.578 14.2579 78.284 14.2188 77.9196 14.2188C77.4604 14.2188 77.0431 14.3187 76.6792 14.5168C76.315 14.7151 76.0286 14.9983 75.8279 15.3583C75.628 15.7179 75.5265 16.1332 75.5265 16.5928V17.5076H74.4301V18.7755H75.5265V24.1171H77.1004V18.7755H79.4347V22.17C79.4347 23.568 80.0941 24.2765 81.3946 24.2765C81.6083 24.2765 81.8332 24.2515 82.0629 24.2024C82.2967 24.1521 82.4559 24.1018 82.5496 24.0481L82.5703 24.0358V22.7562L82.5063 22.7985C82.4209 22.8554 82.3145 22.9019 82.1898 22.9365C82.0646 22.9717 81.9599 22.9894 81.8789 22.9894C81.5743 22.9894 81.3489 22.9073 81.209 22.7453C81.0676 22.5818 80.9958 22.2959 80.9958 21.896V18.7755H82.5703ZM70.9153 22.9896C70.344 22.9896 69.8936 22.8002 69.5762 22.427C69.2569 22.052 69.0951 21.5174 69.0951 20.8381C69.0951 20.1372 69.2569 19.5887 69.5764 19.207C69.894 18.8279 70.3401 18.6355 70.9025 18.6355C71.4482 18.6355 71.8827 18.8193 72.1939 19.182C72.5066 19.5466 72.6653 20.0908 72.6653 20.7998C72.6653 21.5175 72.5161 22.0688 72.2218 22.4376C71.9295 22.8037 71.4899 22.9896 70.9153 22.9896ZM70.9853 17.3484C69.8954 17.3484 69.0297 17.6677 68.4125 18.2976C67.7957 18.9275 67.4829 19.7992 67.4829 20.8888C67.4829 21.9236 67.7882 22.756 68.3904 23.3624C68.9925 23.9691 69.812 24.2764 70.8259 24.2764C71.8824 24.2764 72.7308 23.9525 73.3478 23.314C73.9647 22.6761 74.2772 21.8126 74.2772 20.7485C74.2772 19.6975 73.9839 18.8589 73.4052 18.2565C72.8263 17.6538 72.012 17.3484 70.9853 17.3484ZM64.9453 17.3484C64.2039 17.3484 63.5907 17.538 63.1222 17.9119C62.6509 18.288 62.4118 18.7813 62.4118 19.3783C62.4118 19.6885 62.4634 19.9642 62.565 20.198C62.6671 20.4325 62.8252 20.639 63.0353 20.8123C63.2438 20.9842 63.5656 21.1643 63.992 21.3475C64.3505 21.4951 64.6178 21.6198 64.7876 21.7182C64.9536 21.8145 65.0714 21.9114 65.1379 22.0058C65.2026 22.0981 65.2354 22.2245 65.2354 22.3804C65.2354 22.8245 64.9028 23.0406 64.2186 23.0406C63.9648 23.0406 63.6753 22.9876 63.3582 22.8831C63.0433 22.7802 62.7461 22.6295 62.477 22.4363L62.4117 22.3894V23.9048L62.4357 23.9159C62.6583 24.0187 62.9391 24.1054 63.2701 24.1736C63.6004 24.2419 63.9005 24.2766 64.1612 24.2766C64.9657 24.2766 65.6135 24.0861 66.0863 23.71C66.562 23.3313 66.8031 22.8263 66.8031 22.2087C66.8031 21.7632 66.6733 21.3812 66.4175 21.073C66.1634 20.7674 65.7224 20.4868 65.1073 20.2388C64.6173 20.0421 64.3034 19.8789 64.1739 19.7535C64.049 19.6325 63.9856 19.4613 63.9856 19.2444C63.9856 19.0522 64.0639 18.8982 64.2245 18.7735C64.3864 18.6482 64.6117 18.5844 64.8943 18.5844C65.1566 18.5844 65.4249 18.6259 65.6917 18.707C65.9583 18.7882 66.1925 18.897 66.388 19.03L66.4523 19.0739V17.6365L66.4277 17.6259C66.2473 17.5485 66.0095 17.4823 65.7206 17.4286C65.433 17.3753 65.1722 17.3484 64.9453 17.3484ZM58.3087 22.9896C57.7376 22.9896 57.287 22.8002 56.9697 22.427C56.6503 22.052 56.4887 21.5175 56.4887 20.8381C56.4887 20.1372 56.6505 19.5887 56.97 19.207C57.2874 18.8279 57.7334 18.6355 58.2961 18.6355C58.8416 18.6355 59.2761 18.8193 59.5873 19.182C59.9001 19.5466 60.0588 20.0908 60.0588 20.7998C60.0588 21.5175 59.9095 22.0688 59.6152 22.4376C59.3229 22.8037 58.8835 22.9896 58.3087 22.9896ZM58.3789 17.3484C57.2887 17.3484 56.423 17.6677 55.8061 18.2976C55.1893 18.9275 54.8763 19.7992 54.8763 20.8888C54.8763 21.924 55.1818 22.756 55.784 23.3624C56.3862 23.9691 57.2056 24.2764 58.2194 24.2764C59.2758 24.2764 60.1244 23.9525 60.7414 23.314C61.3581 22.6761 61.6708 21.8126 61.6708 20.7485C61.6708 19.6975 61.3774 18.8589 60.7986 18.2565C60.2195 17.6538 59.4054 17.3484 58.3789 17.3484ZM52.4872 18.6522V17.5076H50.9325V24.117H52.4872V20.736C52.4872 20.1611 52.6175 19.6888 52.8748 19.3321C53.1287 18.9796 53.4671 18.801 53.8803 18.801C54.0203 18.801 54.1775 18.8241 54.3477 18.8698C54.5162 18.9152 54.6383 18.9645 54.7103 19.0164L54.7756 19.0637V17.4963L54.7504 17.4855C54.6057 17.424 54.4008 17.3929 54.1417 17.3929C53.7509 17.3929 53.4013 17.5185 53.1018 17.7656C52.839 17.9829 52.649 18.2808 52.5037 18.6522H52.4872ZM48.1482 17.3484C47.435 17.3484 46.7987 17.5013 46.2576 17.8028C45.7154 18.105 45.296 18.5364 45.0107 19.0851C44.7266 19.6323 44.5824 20.2716 44.5824 20.9845C44.5824 21.609 44.7222 22.1821 44.9986 22.6872C45.2751 23.1931 45.6665 23.5889 46.162 23.8634C46.6568 24.1376 47.2286 24.2766 47.8617 24.2766C48.6006 24.2766 49.2314 24.1289 49.7372 23.8375L49.7576 23.8258V22.4014L49.6923 22.4491C49.4632 22.616 49.2071 22.7493 48.9317 22.8452C48.6569 22.9411 48.4063 22.9896 48.1867 22.9896C47.5766 22.9896 47.0869 22.7987 46.7314 22.4224C46.3751 22.0455 46.1945 21.5164 46.1945 20.8505C46.1945 20.1805 46.3829 19.6378 46.7541 19.2373C47.1242 18.838 47.6149 18.6355 48.2123 18.6355C48.7233 18.6355 49.2213 18.8085 49.6924 19.1503L49.7576 19.1976V17.6968L49.7366 17.6849C49.5593 17.5857 49.3175 17.5038 49.0173 17.4416C48.7184 17.3796 48.426 17.3484 48.1482 17.3484ZM43.5116 17.5077H41.9569V24.117H43.5116V17.5077ZM42.7501 14.692C42.4942 14.692 42.2711 14.7791 42.0877 14.9518C41.9036 15.1249 41.8102 15.3428 41.8102 15.6C41.8102 15.8532 41.9025 16.0672 42.0848 16.2357C42.266 16.4037 42.4899 16.4888 42.7502 16.4888C43.0104 16.4888 43.2351 16.4037 43.4185 16.2359C43.603 16.0672 43.6966 15.8533 43.6966 15.6C43.6966 15.3518 43.6055 15.1361 43.4261 14.9587C43.2468 14.7817 43.0193 14.692 42.7501 14.692ZM38.871 17.02V24.117H40.4576V14.8944H38.2616L35.4703 21.7447L32.7616 14.8944H30.4761V24.1169H31.9672V17.0193H32.0184L34.8788 24.117H36.004L38.8198 17.02H38.871Z" fill="#6E6E6E"/>
<path d="M17.7866 19.1342H10.4727V11.8203H17.7866V19.1342Z" fill="#E05D35"/>
<path d="M25.8626 19.1342H18.5489V11.8203H25.8626V19.1342Z" fill="#8BB838"/>
<path d="M17.7863 27.2044H10.4726V19.8906H17.7863V27.2044Z" fill="#48A0E8"/>
<path d="M25.8625 27.2044H18.5488V19.8906H25.8625V27.2044Z" fill="#F3BD41"/>
</g>
<defs>
<clipPath id="clip0_5253_40592">
<rect width="72.0974" height="15.4" fill="white" transform="translate(10.4728 11.7969)"/>
</clipPath>
</defs>
</svg>
