<svg width="94" height="40" viewBox="0 0 94 40" fill="none" xmlns="http://www.w3.org/2000/svg">
<g clip-path="url(#clip0_5253_40601)">
<path d="M24.0326 11.8125H17.5932V27.2125L24.0326 11.8125Z" fill="#FA0C00"/>
<path d="M28.5635 11.8125H34.9945V27.2125L28.5635 11.8125Z" fill="#FA0C00"/>
<path d="M26.2979 17.4844L30.3965 27.2085H27.7075L26.4825 24.1125H23.4831L26.2979 17.4844Z" fill="#FA0C00"/>
<path d="M45.5002 21.5912L46.2595 23.7684C46.2847 23.8229 46.3224 23.8481 46.3895 23.8481H47.8494C47.9291 23.8481 47.9417 23.8103 47.9291 23.7306L44.9129 15.3531C44.9003 15.286 44.8877 15.2734 44.8206 15.2734H43.0083C42.958 15.2734 42.9286 15.3112 42.9286 15.3657C42.9035 15.8062 42.8657 15.9404 42.8112 16.0705L40.1221 23.7181C40.1096 23.8104 40.1389 23.8481 40.2144 23.8481H41.5191C41.5988 23.8481 41.6366 23.8229 41.6659 23.7432L42.3833 21.5912H45.5002ZM42.7986 20.1691C43.1929 18.9777 43.7131 17.4507 43.9229 16.5781H43.9354C44.1955 17.4926 44.808 19.3049 45.0849 20.1691H42.7986Z" fill="#FA0C00"/>
<path d="M51.8062 23.9768C52.5907 23.9768 53.4255 23.8341 54.2729 23.4692C54.34 23.444 54.3526 23.4146 54.3526 23.3517C54.3274 23.1168 54.2981 22.777 54.2981 22.5169V14.6302C54.2981 14.5799 54.2981 14.5547 54.2351 14.5547H52.813C52.7585 14.5547 52.7333 14.5799 52.7333 14.647V17.3192C52.511 17.2941 52.3558 17.2815 52.1712 17.2815C49.8765 17.2815 48.4669 18.7959 48.4669 20.6878C48.4669 22.8818 49.9142 23.9768 51.8062 23.9768ZM52.7333 22.5169C52.4984 22.5924 52.2383 22.6218 51.974 22.6218C50.9336 22.6218 50.082 22.0344 50.082 20.6081C50.082 19.3454 50.9588 18.5987 52.1208 18.5987C52.3558 18.5987 52.5613 18.6239 52.7333 18.691V22.5169Z" fill="#FA0C00"/>
<path d="M58.8893 17.2656C56.9303 17.2656 55.7179 18.7674 55.7179 20.6217C55.7179 22.2787 56.6828 23.9609 58.86 23.9609C60.7016 23.9609 61.9937 22.6059 61.9937 20.5797C61.9937 18.7926 60.8988 17.2656 58.8893 17.2656ZM58.8096 18.5829C59.9171 18.5829 60.387 19.5351 60.387 20.6217C60.387 21.9641 59.6948 22.6311 58.8893 22.6311C57.8951 22.6311 57.3078 21.7963 57.3078 20.5923C57.3078 19.3548 57.9329 18.5829 58.8096 18.5829Z" fill="#FA0C00"/>
<path d="M63.464 14.5547C63.4095 14.5547 63.3717 14.5799 63.3717 14.647V23.574C63.3717 23.6118 63.4095 23.6789 63.464 23.6915C64.0891 23.8845 64.7435 23.9768 65.4189 23.9768C67.3528 23.9768 69.2322 22.777 69.2322 20.3606C69.2322 18.6113 68.0324 17.2815 66.153 17.2815C65.721 17.2815 65.3182 17.3486 64.9659 17.466L64.9491 14.6596C64.9491 14.5673 64.9239 14.5547 64.8316 14.5547H63.464ZM67.6255 20.52C67.6255 21.9673 66.6355 22.6469 65.5657 22.6469C65.3434 22.6469 65.1462 22.6343 64.9659 22.5798V18.7707C65.1714 18.691 65.4189 18.6239 65.8762 18.6239C66.9082 18.6239 67.6255 19.2783 67.6255 20.52Z" fill="#FA0C00"/>
<path d="M74.5397 20.974C75.1773 20.974 75.7017 20.9615 75.8821 20.9195C75.9492 20.9069 75.9744 20.8818 75.987 20.8272C76.0247 20.6846 76.0415 20.3867 76.0415 20.0218C76.0415 18.78 75.2948 17.2656 73.3651 17.2656C71.3934 17.2656 70.2985 18.8723 70.2985 20.6846C70.2985 22.2913 71.1459 23.9609 73.5203 23.9609C74.4096 23.9609 74.9844 23.8183 75.4794 23.5834C75.5297 23.5582 75.5549 23.5162 75.5549 23.4407V22.3542C75.5549 22.2913 75.5171 22.2787 75.4794 22.3039C74.9844 22.5136 74.4474 22.6185 73.8601 22.6185C72.5303 22.6185 71.9262 21.8844 71.8884 20.974H74.5397ZM71.8884 19.8498C71.9933 19.2121 72.396 18.5199 73.2979 18.5199C74.2922 18.5199 74.5523 19.3548 74.5523 19.7323C74.5523 19.7449 74.5523 19.7994 74.5523 19.8372C74.4977 19.8498 74.3299 19.8498 73.8349 19.8498H71.8884Z" fill="#FA0C00"/>
</g>
<defs>
<clipPath id="clip0_5253_40601">
<rect width="58.4481" height="15.4" fill="white" transform="translate(17.5935 11.7969)"/>
</clipPath>
</defs>
</svg>
