<svg width="94" height="40" viewBox="0 0 94 40" fill="none" xmlns="http://www.w3.org/2000/svg">
<g clip-path="url(#clip0_5253_40621)">
<path d="M52.9727 27.6248C49.9813 29.8297 45.6454 31.0061 41.9123 31.0061C36.6779 31.0061 31.9656 29.0701 28.4006 25.8501C28.1205 25.5969 28.3715 25.2518 28.7076 25.449C32.5549 27.6875 37.3121 29.0342 42.2261 29.0342C45.5401 29.0342 49.1858 28.3485 52.538 26.9257C53.0444 26.7105 53.4679 27.2573 52.9727 27.6248Z" fill="#FF9900"/>
<path d="M54.2164 26.2009C53.8355 25.7124 51.6888 25.9701 50.7253 26.0844C50.4318 26.1202 50.387 25.8648 50.6514 25.681C52.3611 24.4777 55.1665 24.825 55.4936 25.2284C55.8208 25.634 55.4085 28.4461 53.8019 29.7883C53.5554 29.9945 53.3201 29.8847 53.4299 29.6113C53.7907 28.7105 54.5996 26.6916 54.2164 26.2009Z" fill="#FF9900"/>
<path d="M50.7925 17.1842V16.0145C50.7925 15.8375 50.9269 15.7188 51.0882 15.7188H56.3249C56.4929 15.7188 56.6274 15.8398 56.6274 16.0145V17.0161C56.6252 17.1842 56.484 17.4038 56.233 17.7511L53.5195 21.6254C54.5278 21.6007 55.5922 21.7509 56.5064 22.2662C56.7125 22.3828 56.7686 22.5531 56.7842 22.7211V23.9692C56.7842 24.1395 56.596 24.3389 56.3988 24.2359C54.7877 23.3911 52.6478 23.2992 50.8664 24.2448C50.6849 24.3434 50.4944 24.1462 50.4944 23.9759V22.7906C50.4944 22.6001 50.4967 22.2752 50.6871 21.9861L53.8309 17.4777H51.095C50.9269 17.4777 50.7925 17.359 50.7925 17.1842Z" fill="#221F1F"/>
<path d="M31.6901 24.484H30.097C29.9446 24.4728 29.8236 24.3586 29.8124 24.2129V16.0364C29.8124 15.8728 29.9491 15.7429 30.1194 15.7429H31.605C31.7596 15.7496 31.8828 15.8683 31.894 16.0162V17.0851H31.9232C32.3108 16.0521 33.0391 15.5703 34.0205 15.5703C35.0177 15.5703 35.6406 16.0521 36.0887 17.0851C36.4741 16.0521 37.3503 15.5703 38.2892 15.5703C38.9569 15.5703 39.6874 15.8459 40.1333 16.4644C40.6375 17.1523 40.5344 18.1517 40.5344 19.0278L40.5322 24.1883C40.5322 24.3518 40.3955 24.484 40.2252 24.484H38.6342C38.4751 24.4728 38.3474 24.3451 38.3474 24.1883V19.8546C38.3474 19.5096 38.3788 18.6491 38.3026 18.322C38.1838 17.773 37.8276 17.6184 37.366 17.6184C36.9806 17.6184 36.5772 17.876 36.4136 18.2884C36.2501 18.7006 36.2658 19.3908 36.2658 19.8546V24.1883C36.2658 24.3518 36.1291 24.484 35.9588 24.484H34.3678C34.2065 24.4728 34.081 24.3451 34.081 24.1883L34.0788 19.8546C34.0788 18.9427 34.2289 17.6004 33.0973 17.6004C31.9523 17.6004 31.9971 18.909 31.9971 19.8546V24.1883C31.9971 24.3518 31.8604 24.484 31.6901 24.484Z" fill="#221F1F"/>
<path d="M61.1357 15.5703C63.4997 15.5703 64.7792 17.6004 64.7792 20.1818C64.7792 22.6757 63.3652 24.6543 61.1357 24.6543C58.8143 24.6543 57.5505 22.6242 57.5505 20.0944C57.5505 17.5489 58.83 15.5703 61.1357 15.5703ZM61.1491 17.2397C59.975 17.2397 59.901 18.8396 59.901 19.8367C59.901 20.8361 59.8853 22.9693 61.1357 22.9693C62.3703 22.9693 62.4286 21.2484 62.4286 20.1997C62.4286 19.5096 62.3995 18.685 62.1911 18.0307C62.0118 17.4615 61.6555 17.2397 61.1491 17.2397Z" fill="#221F1F"/>
<path d="M67.8446 24.484H66.2581C66.099 24.4728 65.9713 24.3451 65.9713 24.1883L65.9691 16.0095C65.9825 15.8594 66.1147 15.7429 66.276 15.7429H67.7527C67.8916 15.7496 68.0059 15.8437 68.0373 15.9714V17.2217H68.0664C68.5123 16.1036 69.1375 15.5703 70.2377 15.5703C70.9525 15.5703 71.6494 15.828 72.0975 16.5338C72.5143 17.1881 72.5143 18.2884 72.5143 19.0793V24.2264C72.4964 24.3698 72.3642 24.484 72.2073 24.484H70.6097C70.464 24.4728 70.343 24.3653 70.3273 24.2264V19.7852C70.3273 18.8911 70.4304 17.5825 69.3302 17.5825C68.9425 17.5825 68.5863 17.8424 68.4092 18.2368C68.1852 18.7365 68.156 19.2339 68.156 19.7852V24.1883C68.1538 24.3518 68.0149 24.484 67.8446 24.484Z" fill="#221F1F"/>
<path d="M46.618 20.5787V20.2336C45.4663 20.2336 44.2495 20.4801 44.2495 21.838C44.2495 22.5259 44.6058 22.992 45.2176 22.992C45.6657 22.992 46.0668 22.7164 46.32 22.2682C46.6337 21.717 46.618 21.1994 46.618 20.5787ZM48.2247 24.4619C48.1193 24.556 47.967 24.5628 47.8482 24.5C47.3194 24.0608 47.2253 23.8569 46.934 23.4379C46.0601 24.3297 45.4416 24.5964 44.3078 24.5964C42.9678 24.5964 41.9236 23.7695 41.9236 22.1136C41.9236 20.8207 42.625 19.9401 43.6221 19.5099C44.4871 19.1289 45.6948 19.0617 46.618 18.9564V18.7502C46.618 18.3716 46.6472 17.9234 46.4253 17.5963C46.2304 17.3027 45.8584 17.1817 45.5313 17.1817C44.924 17.1817 44.3818 17.4932 44.2495 18.1385C44.2227 18.2819 44.1173 18.4231 43.9739 18.4298L42.4278 18.264C42.2979 18.2349 42.1544 18.1296 42.1903 17.9301C42.5466 16.0569 44.2383 15.4922 45.7531 15.4922C46.5284 15.4922 47.5412 15.6983 48.1529 16.2854C48.9282 17.0092 48.8543 17.9749 48.8543 19.0259V21.5086C48.8543 22.2548 49.1635 22.5819 49.4548 22.9853C49.5579 23.1287 49.5803 23.3012 49.4503 23.4088C49.1254 23.6799 48.5473 24.1841 48.2291 24.4664L48.2247 24.4619Z" fill="#221F1F"/>
<path d="M25.7318 20.5787V20.2336C24.58 20.2336 23.3633 20.4801 23.3633 21.838C23.3633 22.5259 23.7196 22.992 24.3313 22.992C24.7795 22.992 25.1806 22.7164 25.4338 22.2682C25.7475 21.717 25.7318 21.1994 25.7318 20.5787ZM27.3384 24.4619C27.2331 24.556 27.0807 24.5628 26.962 24.5C26.4332 24.0608 26.339 23.8569 26.0477 23.4379C25.1738 24.3297 24.5554 24.5964 23.4216 24.5964C22.0816 24.5964 21.0374 23.7695 21.0374 22.1136C21.0374 20.8207 21.7388 19.9401 22.7359 19.5099C23.6008 19.1289 24.8086 19.0617 25.7318 18.9564V18.7502C25.7318 18.3716 25.7609 17.9234 25.5391 17.5963C25.3441 17.3027 24.9722 17.1817 24.645 17.1817C24.0378 17.1817 23.4955 17.4932 23.3633 18.1385C23.3364 18.2819 23.2311 18.4231 23.0877 18.4298L21.5416 18.264C21.4116 18.2349 21.2682 18.1296 21.3041 17.9301C21.6603 16.0569 23.3521 15.4922 24.8669 15.4922C25.6422 15.4922 26.655 15.6983 27.2667 16.2854C28.042 17.0092 27.9681 17.9749 27.9681 19.0259V21.5086C27.9681 22.2548 28.2773 22.5819 28.5686 22.9853C28.6717 23.1287 28.6941 23.3012 28.5641 23.4088C28.2392 23.6799 27.6611 24.1841 27.3429 24.4664L27.3384 24.4619Z" fill="#221F1F"/>
</g>
<defs>
<clipPath id="clip0_5253_40621">
<rect width="51.5385" height="15.5556" fill="white" transform="translate(21.0063 15.4688)"/>
</clipPath>
</defs>
</svg>
