<svg width="94" height="40" viewBox="0 0 94 40" fill="none" xmlns="http://www.w3.org/2000/svg">
<g clip-path="url(#clip0_5253_40613)">
<path d="M19.3971 21.858C19.3971 22.5286 19.5443 23.0436 19.7367 23.3551C19.989 23.7631 20.3653 23.936 20.7489 23.936C21.2436 23.936 21.6962 23.8132 22.5685 22.6068C23.2673 21.6399 24.0907 20.2826 24.6447 19.4318L25.5829 17.9902C26.2346 16.9891 26.989 15.8762 27.8539 15.1218C28.56 14.5061 29.3217 14.1641 30.0883 14.1641C31.3753 14.1641 32.6012 14.9099 33.5394 16.3087C34.5662 17.8406 35.0647 19.7702 35.0647 21.7614C35.0647 22.9452 34.8313 23.815 34.4343 24.5022C34.0507 25.1668 33.3031 25.8307 32.0454 25.8307V23.936C33.1222 23.936 33.391 22.9464 33.391 21.814C33.391 20.2002 33.0147 18.4093 32.1859 17.1296C31.5976 16.2219 30.8353 15.6673 29.9967 15.6673C29.0896 15.6673 28.3597 16.3514 27.5393 17.5712C27.1032 18.2193 26.6555 19.0091 26.1528 19.9003L25.5994 20.8806C24.4877 22.8518 24.2061 23.3007 23.6503 24.0416C22.676 25.339 21.8441 25.8307 20.7489 25.8307C19.4496 25.8307 18.6281 25.2682 18.1193 24.4203C17.7039 23.7295 17.4999 22.8231 17.4999 21.7902L19.3971 21.858Z" fill="#0081FB"/>
<path d="M18.9958 16.4424C19.8656 15.1017 21.1209 14.1641 22.5606 14.1641C23.3943 14.1641 24.2232 14.4108 25.0888 15.1176C26.0355 15.8902 27.0446 17.1626 28.3035 19.2595L28.7549 20.0121C29.8446 21.8274 30.4646 22.7614 30.8274 23.2018C31.2941 23.7674 31.6209 23.936 32.0454 23.936C33.1223 23.936 33.391 22.9464 33.391 21.814L35.0647 21.7614C35.0647 22.9452 34.8313 23.815 34.4343 24.5022C34.0507 25.1668 33.3031 25.8307 32.0454 25.8307C31.2635 25.8307 30.5709 25.6609 29.8049 24.9383C29.2161 24.3837 28.5277 23.3984 27.9981 22.5128L26.4228 19.8813C25.6324 18.5607 24.9073 17.5761 24.4877 17.1302C24.0363 16.6507 23.456 16.0717 22.53 16.0717C21.7805 16.0717 21.1441 16.5976 20.6114 17.402L18.9958 16.4424Z" fill="url(#paint0_linear_5253_40613)"/>
<path d="M22.53 16.0717C21.7805 16.0717 21.1441 16.5976 20.6114 17.402C19.8583 18.5388 19.3971 20.232 19.3971 21.858C19.3971 22.5286 19.5443 23.0436 19.7367 23.3551L18.1193 24.4203C17.7039 23.7295 17.4999 22.8231 17.4999 21.7902C17.4999 19.9119 18.0154 17.9542 18.9958 16.4424C19.8656 15.1017 21.1209 14.1641 22.5606 14.1641L22.53 16.0717Z" fill="url(#paint1_linear_5253_40613)"/>
<path d="M38.7529 14.5312H40.9476L44.6791 21.282L48.4112 14.5312H50.5582V25.6237H48.7679V17.1223L45.4951 23.0094H43.8154L40.5432 17.1223V25.6237H38.7529V14.5312ZM56.168 18.6671C54.884 18.6671 54.1108 19.6334 53.9257 20.83H58.2833C58.1935 19.5974 57.4825 18.6671 56.168 18.6671ZM52.1506 21.5117C52.1506 18.9939 53.7779 17.1614 56.1991 17.1614C58.5807 17.1614 60.0027 18.9707 60.0027 21.6461V22.1378H53.9257C54.1413 23.4395 55.005 24.3166 56.3977 24.3166C57.5087 24.3166 58.2032 23.9776 58.8617 23.3576L59.8128 24.5224C58.9167 25.3464 57.7769 25.8217 56.3341 25.8217C53.7131 25.8217 52.1506 23.9104 52.1506 21.5117ZM62.1736 18.8259H60.5256V17.36H62.1736V14.9356H63.901V17.36H66.4047V18.8259H63.901V22.5415C63.901 23.8102 64.3066 24.261 65.3034 24.261C65.7585 24.261 66.0193 24.2219 66.4047 24.1578V25.6079C65.9246 25.7435 65.4665 25.8058 64.9705 25.8058C63.1057 25.8058 62.1736 24.7869 62.1736 22.7474V18.8259ZM73.6784 20.2516C73.3314 19.3757 72.5575 18.7306 71.4202 18.7306C69.942 18.7306 68.9958 19.7794 68.9958 21.4879C68.9958 23.1536 69.8669 24.2531 71.3493 24.2531C72.5148 24.2531 73.3467 23.5751 73.6784 22.7315V20.2516ZM75.4058 25.6237H73.7101V24.4669C73.2361 25.1479 72.3737 25.8217 70.9767 25.8217C68.7301 25.8217 67.2287 23.9409 67.2287 21.4879C67.2287 19.0116 68.7662 17.1614 71.072 17.1614C72.2118 17.1614 73.106 17.6171 73.7101 18.4216V17.36H75.4058V25.6237Z" fill="#192830"/>
</g>
<defs>
<linearGradient id="paint0_linear_5253_40613" x1="21.2259" y1="21.3107" x2="33.3202" y2="21.9215" gradientUnits="userSpaceOnUse">
<stop stop-color="#0064E1"/>
<stop offset="0.4" stop-color="#0064E1"/>
<stop offset="0.83" stop-color="#0073EE"/>
<stop offset="1" stop-color="#0082FB"/>
</linearGradient>
<linearGradient id="paint1_linear_5253_40613" x1="20.2486" y1="22.6545" x2="20.2486" y2="18.1955" gradientUnits="userSpaceOnUse">
<stop stop-color="#0082FB"/>
<stop offset="1" stop-color="#0064E0"/>
</linearGradient>
<clipPath id="clip0_5253_40613">
<rect width="57.9058" height="11.6667" fill="white" transform="translate(17.5 14.1641)"/>
</clipPath>
</defs>
</svg>
