<svg width="94" height="40" viewBox="0 0 94 40" fill="none" xmlns="http://www.w3.org/2000/svg">
<path d="M44.3804 23.6951V19.0526H44.4623L47.8068 23.6951H48.8592V16.8776H47.6898V21.5084H47.608L44.2635 16.8776H43.2111V23.6951H44.3804ZM52.1686 23.8004C53.7122 23.8004 54.6594 22.7947 54.6594 21.1108C54.6594 19.4385 53.7122 18.4212 52.1686 18.4212C50.6367 18.4212 49.6778 19.4385 49.6778 21.1108C49.6895 22.7947 50.625 23.8004 52.1686 23.8004ZM52.1686 22.8181C51.35 22.8181 50.8822 22.1983 50.8822 21.1108C50.8822 20.0349 51.35 19.4035 52.1686 19.4035C52.9871 19.4035 53.4549 20.0349 53.4549 21.1108C53.4549 22.1983 52.9871 22.8181 52.1686 22.8181ZM55.7235 17.2635V18.5615H54.9049V19.497H55.7235V22.3152C55.7235 23.3209 56.1913 23.7185 57.384 23.7185C57.6062 23.7185 57.8284 23.6951 58.0038 23.66V22.7479C57.8635 22.7596 57.7699 22.7713 57.6062 22.7713C57.1151 22.7713 56.8929 22.5491 56.8929 22.0346V19.497H58.0038V18.5615H56.8929V17.2635H55.7235ZM58.7055 23.6951H59.8748V18.5264H58.7055V23.6951ZM59.2902 17.6728C59.676 17.6728 59.9918 17.357 59.9918 16.9711C59.9918 16.5735 59.676 16.2578 59.2902 16.2578C58.9043 16.2578 58.5885 16.5735 58.5885 16.9711C58.5885 17.357 58.9043 17.6728 59.2902 17.6728ZM63.079 23.8004C64.6226 23.8004 65.5698 22.7947 65.5698 21.1108C65.5698 19.4385 64.6226 18.4212 63.079 18.4212C61.5471 18.4212 60.5882 19.4385 60.5882 21.1108C60.5882 22.7947 61.5237 23.8004 63.079 23.8004ZM63.079 22.8181C62.2604 22.8181 61.7926 22.1983 61.7926 21.1108C61.7926 20.0349 62.2604 19.4035 63.079 19.4035C63.8858 19.4035 64.3653 20.0349 64.3653 21.1108C64.3536 22.1983 63.8858 22.8181 63.079 22.8181ZM66.2597 23.6951H67.4291V20.6898C67.4291 19.9297 67.8735 19.4502 68.5634 19.4502C69.2767 19.4502 69.6042 19.8478 69.6042 20.6313V23.6951H70.7735V20.3507C70.7735 19.1111 70.1421 18.4212 68.9961 18.4212C68.2243 18.4212 67.7097 18.772 67.4642 19.3567H67.3823V18.5264H66.248C66.2597 18.5264 66.2597 23.6951 66.2597 23.6951Z" fill="#161616"/>
<path fill-rule="evenodd" clip-rule="evenodd" d="M25.2959 14.7848C25.8455 15.2292 26.0443 15.1941 27.0734 15.124L36.7676 14.5393C36.9781 14.5393 36.8027 14.3288 36.7326 14.3054L35.1188 13.1477C34.8148 12.9138 34.3938 12.6332 33.6103 12.7033L24.2318 13.3933C23.8927 13.4283 23.8225 13.6038 23.9628 13.7324L25.2959 14.7848ZM25.8806 17.0418V27.2388C25.8806 27.7884 26.1496 27.9872 26.7694 27.9521L37.4225 27.3324C38.0423 27.2973 38.1124 26.9231 38.1124 26.4787V16.3518C38.1124 15.9074 37.937 15.6619 37.5628 15.697L26.4302 16.3518C26.021 16.3869 25.8806 16.5974 25.8806 17.0418ZM36.3934 17.5914C36.4636 17.8954 36.3934 18.2111 36.0894 18.2462L35.5749 18.3515V25.8823C35.1305 26.1162 34.7212 26.2565 34.3704 26.2565C33.8208 26.2565 33.6804 26.0811 33.2712 25.5666L29.915 20.2927V25.3912L30.9792 25.6251C30.9792 25.6251 30.9792 26.2448 30.1255 26.2448L27.7633 26.3852C27.6932 26.2448 27.7633 25.9057 27.9972 25.8356L28.617 25.6601V18.9245L27.7633 18.8543C27.6932 18.5503 27.8686 18.1059 28.348 18.0708L30.8856 17.8954L34.3821 23.2278V18.5152L33.4933 18.4099C33.4232 18.0357 33.7038 17.7551 34.043 17.72L36.3934 17.5914ZM23.4483 12.4578L33.2127 11.7444C34.4055 11.6392 34.7212 11.7093 35.4696 12.259L38.5802 14.4457C39.0947 14.8199 39.2701 14.9252 39.2701 15.3344V27.3441C39.2701 28.0925 39.0012 28.5368 38.0423 28.607L26.7109 29.2969C25.9859 29.332 25.6467 29.2268 25.2725 28.7473L22.9688 25.7654C22.5596 25.2158 22.3842 24.8065 22.3842 24.327V13.6505C22.3842 13.0308 22.6648 12.5279 23.4483 12.4578Z" fill="#161616"/>
</svg>
